<?xml version="1.0" standalone="no"?>
<!DOCTYPE svg PUBLIC "-//W3C//DTD SVG 20010904//EN"
 "http://www.w3.org/TR/2001/REC-SVG-20010904/DTD/svg10.dtd">
<svg version="1.0" xmlns="http://www.w3.org/2000/svg"
 width="512.000000pt" height="512.000000pt" viewBox="0 0 512.000000 512.000000"
 preserveAspectRatio="xMidYMid meet">
<metadata>
Created by potrace 1.14, written by Peter Selinger 2001-2017
</metadata>
<g transform="translate(0.000000,512.000000) scale(0.100000,-0.100000)"
fill="#000000" stroke="none">
<path d="M2315 5024 c-374 -53 -579 -113 -854 -249 -243 -121 -426 -252 -630
-449 -209 -205 -362 -415 -492 -681 -114 -235 -182 -448 -226 -710 -26 -158
-26 -592 0 -750 90 -544 336 -1019 718 -1390 206 -200 392 -332 632 -449 243
-119 428 -180 697 -228 110 -20 158 -23 400 -23 243 0 290 3 403 23 257 46
445 106 662 211 258 124 451 259 654 456 219 213 367 416 501 690 172 350 250
688 250 1085 0 397 -77 733 -249 1085 -125 255 -255 439 -455 643 -370 379
-833 621 -1361 714 -96 16 -170 21 -370 23 -137 2 -263 1 -280 -1z m165 -523
l0 -190 26 -20 c15 -12 39 -21 54 -21 15 0 39 9 54 21 l26 20 0 190 0 189 34
0 c94 0 452 -62 471 -82 3 -3 -15 -105 -40 -228 -25 -123 -45 -238 -45 -255 0
-17 10 -51 23 -75 20 -41 32 -50 158 -116 157 -82 200 -110 318 -209 190 -160
358 -402 446 -645 70 -196 107 -489 85 -683 -18 -164 -75 -369 -137 -490 l-24
-48 35 -39 c65 -73 56 -189 -21 -247 -43 -33 -134 -44 -177 -21 -27 14 -29 13
-94 -55 -129 -134 -241 -216 -437 -319 -109 -58 -122 -68 -142 -108 -13 -24
-23 -57 -23 -73 0 -15 25 -125 56 -243 30 -119 53 -221 51 -228 -5 -13 -128
-45 -277 -72 -137 -25 -439 -30 -600 -9 -328 41 -648 160 -918 339 -99 66
-254 190 -261 208 -2 5 53 64 122 131 77 74 128 133 132 149 14 57 -46 117
-103 104 -17 -4 -73 -55 -148 -132 -67 -70 -127 -125 -132 -123 -38 14 -233
286 -316 440 l-46 85 79 33 c103 42 119 55 127 96 8 43 -12 77 -54 94 -27 11
-38 9 -113 -23 -45 -20 -88 -36 -95 -36 -38 0 -144 470 -144 640 l0 30 189 0
190 0 20 26 c27 34 27 74 0 108 l-20 26 -191 0 -191 0 7 88 c12 154 40 297 92
469 l24 81 85 -34 c47 -19 96 -34 110 -34 55 0 94 76 65 130 -5 10 -50 35
-100 56 -105 43 -103 32 -32 164 84 158 276 425 314 439 6 2 65 -53 132 -122
75 -78 131 -129 148 -133 57 -13 117 47 103 104 -3 16 -55 75 -131 150 -69 67
-124 126 -122 131 6 18 164 144 258 205 52 35 133 84 180 109 l86 46 40 -92
c30 -69 47 -95 67 -105 55 -27 120 12 120 72 0 14 -15 58 -32 100 -17 41 -31
79 -31 84 0 13 164 66 300 96 117 26 236 42 323 45 l47 1 0 -189z m2197 -2203
c-3 -8 -6 -5 -6 6 -1 11 2 17 5 13 3 -3 4 -12 1 -19z m-457 -1082 c0 -2 -8
-10 -17 -17 -16 -13 -17 -12 -4 4 13 16 21 21 21 13z m-60 -69 c0 -2 -17 -19
-37 -38 l-38 -34 34 38 c33 34 41 42 41 34z m-130 -130 c0 -2 -17 -19 -37 -38
l-38 -34 34 38 c33 34 41 42 41 34z m-100 -91 c0 -2 -8 -10 -17 -17 -16 -13
-17 -12 -4 4 13 16 21 21 21 13z"/>
<path d="M2474 2889 c-63 -15 -145 -69 -186 -124 -129 -169 -64 -422 132 -514
44 -20 70 -25 135 -26 111 0 175 24 240 89 78 78 100 132 100 241 0 75 -5 99
-26 145 -33 69 -99 136 -166 167 -60 27 -165 38 -229 22z"/>
</g>
</svg>
